<?xml version="1.0" standalone="no"?>
<!DOCTYPE svg PUBLIC "-//W3C//DTD SVG 20010904//EN"
 "http://www.w3.org/TR/2001/REC-SVG-20010904/DTD/svg10.dtd">
<svg version="1.0" xmlns="http://www.w3.org/2000/svg"
 width="300.000000pt" height="300.000000pt" viewBox="0 0 300.000000 300.000000"
 preserveAspectRatio="xMidYMid meet">
<metadata>
Created by potrace 1.10, written by Peter Selinger 2001-2011
</metadata>
<g transform="translate(0.000000,300.000000) scale(0.100000,-0.100000)"
fill="#000000" stroke="none">
<path d="M1322 2990 c-829 -105 -1417 -861 -1307 -1683 80 -602 509 -1094
1092 -1253 796 -217 1621 256 1839 1053 185 679 -132 1400 -756 1722 -215 110
-409 160 -650 166 -80 2 -178 0 -218 -5z m443 -135 c610 -129 1049 -614 1110
-1227 l7 -68 -431 0 -431 0 -6 28 c-27 124 -78 216 -164 295 -197 183 -503
183 -700 0 -86 -79 -137 -171 -164 -295 l-6 -28 -431 0 -431 0 7 68 c64 640
557 1154 1190 1241 101 14 355 6 450 -14z m-102 -987 c79 -37 160 -116 200
-197 30 -61 32 -72 32 -171 0 -93 -3 -111 -27 -163 -38 -80 -117 -160 -197
-200 -61 -30 -72 -32 -171 -32 -93 0 -111 3 -163 27 -80 38 -160 117 -200 197
-30 61 -32 72 -32 171 0 93 3 112 27 162 47 101 147 190 251 224 70 23 210 14
280 -18z m-677 -455 c27 -124 78 -217 162 -295 200 -184 504 -184 704 0 84 78
135 171 162 295 l6 27 431 0 431 0 -7 -67 c-49 -487 -342 -907 -780 -1118
-198 -95 -358 -130 -595 -130 -237 0 -397 35 -595 130 -438 211 -731 631 -780
1118 l-7 67 431 0 431 0 6 -27z"/>
<path d="M1428 1757 c-115 -33 -194 -140 -192 -262 2 -104 65 -199 161 -241
50 -22 156 -22 206 0 177 78 217 313 75 442 -70 63 -162 85 -250 61z m148 -78
c79 -24 132 -130 112 -224 -21 -100 -127 -166 -233 -143 -144 31 -198 220 -92
325 55 55 124 69 213 42z"/>
</g>
</svg>
